<?xml version="1.0" encoding="UTF-8" standalone="no"?>
<svg
   xmlns:dc="http://purl.org/dc/elements/1.1/"
   xmlns:cc="http://creativecommons.org/ns#"
   xmlns:rdf="http://www.w3.org/1999/02/22-rdf-syntax-ns#"
   xmlns:svg="http://www.w3.org/2000/svg"
   xmlns="http://www.w3.org/2000/svg"
   viewBox="0 0 213.33333 133.33333"
   height="133.33333"
   width="213.33333"
   xml:space="preserve"
   id="svg2"
   version="1.1"><metadata
     id="metadata8"><rdf:RDF><cc:Work
         rdf:about=""><dc:format>image/svg+xml</dc:format><dc:type
           rdf:resource="http://purl.org/dc/dcmitype/StillImage" /></cc:Work></rdf:RDF></metadata><defs
     id="defs6"><clipPath
       id="clipPath20"
       clipPathUnits="userSpaceOnUse"><path
         id="path18"
         d="M 0,100 H 160 V 0 H 0 Z" /></clipPath></defs><g
     transform="matrix(1.3333333,0,0,-1.3333333,0,133.33333)"
     id="g10"><path
       id="path12"
       style="fill:#f6f6f6;fill-opacity:1;fill-rule:nonzero;stroke:none"
       d="M 0,11 H 160 V 91 H 0 Z" /><g
       id="g14"><g
         clip-path="url(#clipPath20)"
         id="g16"><g
           transform="translate(148,100)"
           id="g22"><path
             id="path24"
             style="fill:#265697;fill-opacity:1;fill-rule:nonzero;stroke:none"
             d="m 0,0 h -140 c -4,0 -8,-4 -8,-8 V -20 H 12 v 8 C 12,-4 8,0 0,0" /></g><g
           transform="translate(0,20)"
           id="g26"><path
             id="path28"
             style="fill:#d97b16;fill-opacity:1;fill-rule:nonzero;stroke:none"
             d="m 0,0 c 0,0 0,0 0,-8 0,-8 4,-12 12,-12 h 136 c 8,0 12,4 12,12 v 8 z" /></g><g
           transform="translate(111.6145,70.2179)"
           id="g30"><path
             id="path32"
             style="fill:#265697;fill-opacity:1;fill-rule:nonzero;stroke:none"
             d="m 0,0 c -2.243,0.86 -5.756,1.782 -10.144,1.782 -11.184,0 -19.062,-5.755 -19.129,-14.003 -0.063,-6.097 5.624,-9.498 9.917,-11.528 4.406,-2.079 5.887,-3.406 5.866,-5.263 -0.028,-2.844 -3.519,-4.143 -6.772,-4.143 -4.53,0 -6.937,0.643 -10.654,2.227 l -1.458,0.674 -1.589,-9.498 c 2.644,-1.185 7.532,-2.211 12.608,-2.264 11.898,0 19.622,5.689 19.709,14.496 0.043,4.827 -2.973,8.501 -9.502,11.529 -3.957,1.963 -6.38,3.273 -6.354,5.26 0,1.764 2.051,3.65 6.482,3.65 3.701,0.059 6.382,-0.766 8.471,-1.626 L -1.534,-9.196 0,0" /></g><g
           transform="translate(126.6815,43.8732)"
           id="g34"><path
             id="path36"
             style="fill:#265697;fill-opacity:1;fill-rule:nonzero;stroke:none"
             d="m 0,0 c 0.936,2.445 4.509,11.861 4.509,11.861 -0.066,-0.113 0.93,2.457 1.501,4.05 l 0.765,-3.658 c 0,0 2.167,-10.129 2.62,-12.253 z M 13.957,27.349 H 5.211 c -2.709,0 -4.737,-0.756 -5.927,-3.519 L -17.525,-15.055 H -5.64 c 0,0 1.943,5.228 2.383,6.376 1.298,0 12.845,-0.018 14.495,-0.018 0.339,-1.485 1.377,-6.358 1.377,-6.358 h 10.503 z" /></g><g
           transform="translate(59.2499,28.8315)"
           id="g38"><path
             id="path40"
             style="fill:#265697;fill-opacity:1;fill-rule:nonzero;stroke:none"
             d="M 0,0 7.077,42.431 H 18.395 L 11.314,0 Z" /></g><g
           transform="translate(49.7568,71.2316)"
           id="g42"><path
             id="path44"
             style="fill:#265697;fill-opacity:1;fill-rule:nonzero;stroke:none"
             d="m 0,0 -11.081,-28.935 -1.181,5.88 c -2.063,6.779 -8.49,14.123 -15.675,17.799 L -17.805,-42.364 -5.83,-42.35 11.989,0 H 0" /></g><g
           transform="translate(28.3956,71.2579)"
           id="g46"><path
             id="path48"
             style="fill:#d97b16;fill-opacity:1;fill-rule:nonzero;stroke:none"
             d="m 0,0 h -18.251 l -0.145,-0.883 c 14.2,-3.512 23.595,-12 27.495,-22.198 L 5.131,-3.582 C 4.445,-0.895 2.458,-0.094 0,0" /></g></g></g></g></svg>